<?xml version="1.0" encoding="UTF-8"?>
<svg width="80px" height="80px" viewBox="0 0 80 80" version="1.1" xmlns="http://www.w3.org/2000/svg" xmlns:xlink="http://www.w3.org/1999/xlink">
    <!-- Generator: Sketch 52.2 (67145) - http://www.bohemiancoding.com/sketch -->
    <title>002-24-hours</title>
    <desc>Created with Sketch.</desc>
    <defs>
        <linearGradient x1="0.0286195286%" y1="50.0072952%" x2="99.4473174%" y2="50.0072952%" id="linearGradient-1">
            <stop stop-color="#27994E" offset="0%"></stop>
            <stop stop-color="#7FB85F" offset="100%"></stop>
        </linearGradient>
    </defs>
    <g id="Symbols" stroke="none" stroke-width="1" fill="none" fill-rule="evenodd">
        <g id="icon-24h">
            <g id="002-24-hours">
                <circle id="Oval" fill="url(#linearGradient-1)" cx="39.6969697" cy="39.6969697" r="24.5454545"></circle>
                <path d="M40,0 C29.5113558,0 19.4631796,4.15691672 12.0027529,11.4521679 L10.2959394,2.33998624 L7.76324845,2.80798348 L10.1032347,15.3062629 L23.0970406,16.7377839 L23.3723331,14.1775637 L13.9573297,13.1314522 C20.9222299,6.38678596 30.2546456,2.56022023 40,2.56022023 C60.6469374,2.56022023 77.4122505,19.3530626 77.4122505,39.9724708 C77.4122505,51.2319339 72.401927,61.3351686 64.5010323,68.2174811 L64.5010323,65.7949071 C63.3998624,65.7949071 62.4088094,65.1892636 61.9132829,64.1982106 L61.3902271,63.1245699 C63.1520991,62.7666896 64.5010323,61.1975224 64.5010323,59.3255334 C64.5010323,57.1782519 62.7666896,55.4439092 60.6194081,55.4439092 L55.4439092,55.4439092 L55.4439092,68.3551273 L58.0316586,68.3551273 L58.0316586,62.2161046 L59.6008259,65.3544391 C60.5092911,67.1713696 62.2986924,68.3000688 64.3358568,68.3551273 C57.7838954,73.9986235 49.2773572,77.4122505 39.9724708,77.4122505 C19.3255334,77.4122505 2.56022023,60.6194081 2.56022023,40 C2.56022023,36.2009635 3.13833448,32.401927 4.29456297,28.7680661 L1.84445974,27.9972471 C0.633172746,31.8788713 0,35.925671 0,40 C0,62.0509291 17.9490709,80 40,80 C62.0509291,80 80,62.0509291 80,40 C80,17.9490709 62.0509291,0 40,0 Z M58.0591879,60.6469374 L58.0591879,58.0591879 L60.6469374,58.0591879 C61.3626979,58.0591879 61.9408121,58.6373021 61.9408121,59.3530626 C61.9408121,60.0688231 61.3626979,60.6469374 60.6469374,60.6469374 L58.0591879,60.6469374 Z" id="Shape" fill="#0B2237" fill-rule="nonzero"></path>
                <path d="M6.66666667,22.3973064 L4.34498834,21.2121212 C3.84149184,22.1279461 3.39393939,22.989899 3.03030303,23.8249158 L5.43589744,24.8484848 C5.7995338,24.0673401 6.19114219,23.2592593 6.66666667,22.3973064 Z" id="Path" fill="#0B2237"></path>
                <path d="M30.2936431,43.2298766 L14.6035378,52.645486 C12.7284461,53.7775681 11.5703013,55.8208381 11.5703013,58.002167 C11.5703013,61.4536367 14.3829388,64.2424242 17.8022236,64.2424242 L40,64.2424242 L40,61.6745308 L17.8022236,61.6745308 C15.7892575,61.6745308 14.1347649,60.0178253 14.1347649,58.002167 C14.1347649,56.7320261 14.8241368,55.5171088 15.899557,54.8544266 L31.5896624,45.4388172 C36.7737393,42.3186886 39.9724251,36.6582783 39.9724251,30.6113033 C39.9724251,22.7695642 33.6026284,16.3636364 25.7437883,16.3636364 C17.8849482,16.3636364 11.5151515,22.7419524 11.5151515,30.6113033 L11.5151515,33.2068086 L14.10719,33.2068086 L14.10719,30.6113033 C14.10719,24.1777638 19.3188419,18.9591416 25.7437883,18.9591416 C32.1687348,18.9591416 37.3803866,24.1777638 37.3803866,30.6113033 C37.4079615,35.7470903 34.6780486,40.5791479 30.2936431,43.2298766 Z" id="Path" fill="#0B2237"></path>
                <path d="M57.7140858,17.031438 L55.4631573,15.7575758 L42.9732494,38.4101691 C42.6163949,39.0747929 42.4242424,39.794802 42.4242424,40.5425037 C42.4242424,42.9517648 44.3732171,44.9456361 46.7888476,44.9456361 L59.1689542,44.9456361 L59.1689542,52.7272727 L61.7492868,52.7272727 L61.7492868,44.9456361 L73.3333333,44.9456361 L73.3333333,42.3425264 L61.7492868,42.3425264 L61.7492868,16.3945069 L59.1689542,16.3945069 L59.1689542,42.370219 L46.7888476,42.370219 C45.8006351,42.370219 45.0045751,41.567132 45.0045751,40.5701963 C45.0045751,40.2655771 45.0869261,39.9609579 45.2241778,39.711724 L57.7140858,17.031438 Z" id="Path" fill="#0B2237"></path>
                <polygon id="Path" fill="#0B2237" points="42.4242424 68.4848485 45.0068687 68.4848485 45.0068687 63.3993784 50.1446465 63.3993784 50.1446465 68.4848485 52.7272727 68.4848485 52.7272727 55.7575758 50.1446465 55.7575758 50.1446465 60.8430458 45.0068687 60.8430458 45.0068687 55.7575758 42.4242424 55.7575758"></polygon>
            </g>
        </g>
    </g>
</svg>