<?xml version="1.0" encoding="UTF-8"?>
<svg width="70px" height="80px" viewBox="0 0 70 80" version="1.1" xmlns="http://www.w3.org/2000/svg" xmlns:xlink="http://www.w3.org/1999/xlink">
    <!-- Generator: Sketch 52.2 (67145) - http://www.bohemiancoding.com/sketch -->
    <title>guarantee (1)</title>
    <desc>Created with Sketch.</desc>
    <defs>
        <linearGradient x1="0.0286195286%" y1="50.0072952%" x2="99.4473174%" y2="50.0072952%" id="linearGradient-1">
            <stop stop-color="#27994E" offset="0%"></stop>
            <stop stop-color="#7FB85F" offset="100%"></stop>
        </linearGradient>
    </defs>
    <g id="Homepage" stroke="none" stroke-width="1" fill="none" fill-rule="evenodd">
        <g transform="translate(-528.000000, -823.000000)" id="features-HERO">
            <g transform="translate(119.000000, 815.000000)">
                <g id="image-with-bottom-text-copy-4" transform="translate(409.000000, 0.000000)">
                    <g id="guarantee-(1)" transform="translate(0.000000, 8.000000)">
                        <circle id="Oval" fill="url(#linearGradient-1)" cx="39.8821918" cy="34.7734247" r="17.9794521"></circle>
                        <path d="M66.5572603,5.23589041 C57.5419178,5.23589041 48.7282192,3.53808219 40.36,0.191506849 L39.8821918,0 L39.4057534,0.191232877 C31.0364384,3.53808219 22.2224658,5.23561644 13.2071233,5.23561644 L10.3443836,5.23561644 L10.3443836,32.2049315 L3.92328767,32.2049315 C1.79917808,32.2049315 0.0706849315,33.9334247 0.0706849315,36.0575342 L0.0706849315,57.889863 C0.0706849315,60.0139726 1.79917808,61.7427397 3.92328767,61.7427397 L15.4813699,61.7427397 C15.4838356,61.7427397 15.4852055,61.7427397 15.4876712,61.7427397 C18.5210959,66.5624658 22.7243836,70.5435616 27.7356164,73.2753425 L39.8819178,79.9008219 L52.0282192,73.2753425 C62.7567123,67.4243836 69.4194521,56.1986301 69.4194521,43.9791781 L69.4194521,5.23589041 L66.5572603,5.23589041 Z M2.63890411,57.889863 L2.63890411,36.0575342 C2.63890411,35.349863 3.21424658,34.7734247 3.9230137,34.7734247 L15.4810959,34.7734247 C16.189863,34.7734247 16.7652055,35.350137 16.7652055,36.0575342 L16.7652055,57.889863 C16.7652055,58.5975342 16.189863,59.1742466 15.4810959,59.1742466 L3.92328767,59.1742466 C3.21424658,59.1742466 2.63890411,58.5975342 2.63890411,57.889863 Z M19.3342466,38.6147945 C23.6224658,38.3824658 27.039726,34.819726 27.039726,30.4753425 L27.039726,23.8575342 C27.039726,22.0879452 28.4794521,20.6468493 30.250411,20.6468493 C32.0213699,20.6468493 33.4610959,22.0876712 33.4610959,23.8575342 L33.4610959,31.9405479 C33.4610959,34.2109589 35.3079452,36.0578082 37.5783562,36.0578082 L46.9931507,36.0578082 C49.4446575,36.0578082 51.4405479,38.0523288 51.4405479,40.5052055 L51.4405479,54.7268493 C51.4405479,57.179726 49.4449315,59.1742466 46.9931507,59.1742466 L28.0709589,59.1742466 C27.0512329,59.1742466 26.1060274,58.6668493 25.539726,57.8194521 C24.4969863,56.2553425 22.7515068,55.3216438 20.8715068,55.3216438 L19.3342466,55.3216438 L19.3342466,38.6147945 Z M66.8512329,43.9789041 C66.8512329,55.2572603 60.7010959,65.619726 50.7994521,71.02 L39.8821918,76.9750685 L28.9649315,71.02 C24.4969863,68.5824658 20.7213699,65.0726027 17.9449315,60.8268493 C18.7243836,60.1717808 19.2369863,59.2216438 19.3087671,58.1427397 C21.900274,62.6131507 25.6323288,66.2758904 30.1953425,68.7646575 L39.8824658,74.0493151 L49.569589,68.7646575 C58.6454795,63.8150685 64.2832877,54.3180822 64.2832877,43.98 L64.2832877,24.4994521 L61.7147945,24.4994521 L61.7147945,43.980274 C61.7147945,53.3769863 56.5906849,62.0112329 48.3405479,66.509863 L39.8824658,71.1230137 L31.4243836,66.509863 C27.8054795,64.5358904 24.7654795,61.7465753 22.4808219,58.3715068 C22.8391781,58.5961644 23.160274,58.8813699 23.4030137,59.2449315 C24.4457534,60.8090411 26.1912329,61.7427397 28.0712329,61.7427397 L46.9934247,61.7427397 C50.8627397,61.7427397 54.0093151,58.5950685 54.0093151,54.7268493 L54.0093151,40.5052055 C54.0093151,36.6369863 50.8630137,33.4893151 46.9934247,33.4893151 L37.5786301,33.4893151 C36.7246575,33.4893151 36.029863,32.7945205 36.029863,31.9405479 L36.029863,23.8575342 C36.029863,20.6712329 33.4369863,18.0783562 30.2506849,18.0783562 C27.0643836,18.0783562 24.4715068,20.6712329 24.4715068,23.8575342 L24.4715068,30.4739726 C24.4715068,33.4021918 22.199726,35.7830137 19.3293151,36.0128767 C19.3164384,34.8969863 18.8219178,33.9027397 18.050137,33.2068493 L18.050137,12.7936986 C25.5090411,12.3353425 32.8460274,10.8109589 39.8821918,8.25506849 C46.9186301,10.8106849 54.2542466,12.3350685 61.7142466,12.7936986 L61.7142466,14.2257534 L64.2827397,14.2257534 L64.2827397,10.349863 L63.0575342,10.2934247 C55.2827397,9.93780822 47.6350685,8.38630137 40.3276712,5.6830137 L39.8819178,5.51726027 L39.4361644,5.68164384 C32.1273973,8.38493151 24.479726,9.93643836 16.7063014,10.2920548 L15.4810959,10.349863 L15.4810959,32.2052055 L12.9126027,32.2052055 L12.9126027,7.80438356 L13.2065753,7.80438356 C22.38,7.80438356 31.350411,6.1090411 39.8816438,2.76493151 C48.4128767,6.1090411 57.3832877,7.80438356 66.5567123,7.80438356 L66.8506849,7.80438356 L66.8506849,43.9789041 L66.8512329,43.9789041 Z" id="Shape" fill="#0B2237" fill-rule="nonzero"></path>
                        <rect id="Rectangle" fill="#0B2237" x="61.7142466" y="19.3624658" width="2.56849315" height="2.56849315"></rect>
                        <rect id="Rectangle" fill="#0B2237" x="5.20739726" y="54.0372603" width="8.98958904" height="2.56849315"></rect>
                    </g>
                </g>
            </g>
        </g>
    </g>
</svg>