<?xml version="1.0" encoding="UTF-8"?>
<svg width="80px" height="80px" viewBox="0 0 80 80" version="1.1" xmlns="http://www.w3.org/2000/svg" xmlns:xlink="http://www.w3.org/1999/xlink">
    <!-- Generator: Sketch 52.2 (67145) - http://www.bohemiancoding.com/sketch -->
    <title>guarantee</title>
    <desc>Created with Sketch.</desc>
    <defs>
        <linearGradient x1="0.000463821892%" y1="50.0060297%" x2="100.012523%" y2="50.0060297%" id="linearGradient-1">
            <stop stop-color="#27994E" offset="0%"></stop>
            <stop stop-color="#7FB85F" offset="99.46%"></stop>
        </linearGradient>
    </defs>
    <g id="Homepage" stroke="none" stroke-width="1" fill="none" fill-rule="evenodd">
        <g transform="translate(-934.000000, -823.000000)" id="features-HERO">
            <g transform="translate(119.000000, 815.000000)">
                <g id="image-with-bottom-text-copy-3" transform="translate(815.000000, 0.000000)">
                    <g id="guarantee" transform="translate(0.000000, 8.000000)">
                        <g id="Group">
                            <circle id="Oval" fill="url(#linearGradient-1)" cx="39.9450172" cy="39.9450172" r="29.6357388"></circle>
                            <path d="M79.8900344,39.9450172 C79.8900344,17.9243986 61.9656357,0 39.9450172,0 C33.0996564,0 26.6666667,1.73195876 21.0309278,4.78350515 C12.3436426,0.467353952 6.07560137,-0.164948454 2.88659794,3.02405498 C-0.577319588,6.48797251 0.742268041,13.3058419 4.70103093,21.1683849 C1.70446735,26.7766323 0,33.1821306 0,39.9450172 C0,61.9656357 17.9243986,79.8900344 39.9450172,79.8900344 C46.7079038,79.8900344 53.0859107,78.185567 58.6941581,75.2164948 C63.3402062,77.5532646 67.7388316,79.0103093 71.2852234,79.0103093 C73.5670103,79.0103093 75.4914089,78.4054983 76.8659794,77.0034364 C80.0549828,73.814433 79.4501718,67.5463918 75.1065292,58.8591065 C78.1580756,53.2233677 79.8900344,46.790378 79.8900344,39.9450172 Z M4.70103093,4.83848797 C6.81786942,2.72164948 11.7388316,3.29896907 18.3642612,6.35051546 C13.4982818,9.48453608 9.37457045,13.6357388 6.26804124,18.5017182 C3.16151203,11.766323 2.69415808,6.87285223 4.70103093,4.83848797 Z M39.9450172,77.3058419 C19.3264605,77.3058419 2.58419244,60.5360825 2.58419244,39.9450172 C2.58419244,34.2268041 3.87628866,28.8109966 6.18556701,23.9725086 C9.64948454,30.1580756 14.4879725,36.838488 19.7388316,42.9415808 L15.2027491,43.8487973 L15.6975945,46.3780069 L22.8178694,44.9484536 L25.6494845,37.8556701 L23.257732,36.8934708 L21.5532646,41.1271478 C15.2027491,33.7594502 10.556701,26.9690722 7.56013746,21.2508591 C14.0756014,10.0893471 26.1443299,2.58419244 39.9450172,2.58419244 C60.5635739,2.58419244 77.3058419,19.3539519 77.3058419,39.9450172 C77.3058419,53.7457045 69.7731959,65.814433 58.6391753,72.2749141 C54.4879725,70.1030928 49.8419244,67.1065292 45.0309278,63.395189 L43.4639175,65.4295533 C47.4501718,68.4810997 51.7388316,71.3676976 55.9175258,73.7044674 C51.0515464,76.0412371 45.6632302,77.3058419 39.9450172,77.3058419 Z M75.0515464,75.1890034 C72.8797251,77.3608247 67.8762887,76.6460481 61.3608247,73.6494845 C66.2268041,70.5429553 70.4054983,66.3917526 73.5395189,61.5532646 C76.5910653,68.1512027 77.1683849,73.0721649 75.0515464,75.1890034 Z" id="Shape" fill="#0B2237" fill-rule="nonzero"></path>
                        </g>
                        <g id="Group" transform="translate(23.642612, 20.068729)" fill="#0B2237" fill-rule="nonzero">
                            <path d="M15.7800687,10.6116838 C15.8350515,10.6116838 15.8900344,10.6116838 15.9725086,10.6116838 C15.9725086,10.6116838 15.9725086,10.6116838 15.9725086,10.6116838 C18.1718213,10.6116838 20.5360825,9.37457045 22.0206186,7.47766323 C23.5601375,5.5257732 24.2474227,3.16151203 23.9175258,1.01718213 C23.8350515,0.52233677 23.395189,0.164948454 22.9003436,0.219931271 C20.7560137,0.357388316 18.3092784,1.67697595 16.8247423,3.49140893 C15.2302405,5.44329897 14.4879725,7.83505155 14.8453608,9.86941581 C14.9553265,10.2817869 15.3127148,10.6116838 15.7800687,10.6116838 Z M18.3092784,4.67353952 C19.2164948,3.54639175 20.7010309,2.63917526 22.1030928,2.25429553 C22.04811,4.15120275 21.0034364,5.66323024 20.5085911,6.29553265 C19.5463918,7.53264605 18.0893471,8.41237113 16.6597938,8.63230241 C16.6872852,6.79037801 17.8969072,5.16838488 18.3092784,4.67353952 Z" id="Shape"></path>
                            <path d="M32.3573883,28.8109966 C32.2474227,28.5635739 32.0549828,28.371134 31.8075601,28.2886598 C27.9037801,26.8041237 26.6666667,22.5704467 27.7938144,19.4914089 C28.3436426,17.95189 29.4158076,16.7147766 30.9003436,15.8900344 C31.1477663,15.7525773 31.3127148,15.5051546 31.3676976,15.2302405 C31.4226804,14.9553265 31.3402062,14.6804124 31.1752577,14.4604811 C29.1958763,11.9862543 26.3917526,10.5017182 23.6426117,10.5017182 C21.7182131,10.5017182 20.4261168,10.9965636 19.2989691,11.4364261 C18.4467354,11.766323 17.7319588,12.0412371 16.9072165,12.0412371 C15.9725086,12.0412371 15.1477663,11.7388316 14.1580756,11.3814433 C13.0309278,10.9690722 11.7388316,10.5017182 10.1168385,10.5017182 C7.01030928,10.5017182 3.84879725,12.371134 1.89690722,15.4226804 C1.18213058,16.5498282 0.659793814,17.95189 0.384879725,19.5463918 C-0.412371134,24.1649485 0.934707904,29.6357388 3.93127148,34.2268041 C5.63573883,36.8109966 7.78006873,39.4776632 10.8041237,39.5051546 L10.8591065,39.5051546 C12.1237113,39.5051546 12.9484536,39.1202749 13.7731959,38.7628866 C14.6254296,38.3780069 15.4501718,38.0206186 16.9347079,37.9931271 L16.9896907,37.9931271 C18.4467354,37.9931271 19.2164948,38.3505155 20.0687285,38.7353952 C20.8659794,39.0927835 21.6907216,39.4776632 22.9553265,39.4776632 L23.0103093,39.4776632 C25.95189,39.4501718 28.2061856,36.6460481 29.9931271,33.9243986 C31.0927835,32.2199313 31.532646,31.3676976 32.3573883,29.4982818 C32.467354,29.3333333 32.467354,29.0584192 32.3573883,28.8109966 Z M28.3986254,32.9621993 C26.9690722,35.1340206 25.0446735,37.6357388 22.9828179,37.6632302 L22.9553265,37.6632302 C22.1305842,37.6632302 21.5532646,37.4158076 20.8659794,37.0859107 C19.9862543,36.6735395 18.8591065,36.1786942 17.0171821,36.1786942 L16.9621993,36.1786942 C15.0927835,36.1786942 13.9656357,36.7010309 13.0584192,37.1134021 C12.3436426,37.443299 11.766323,37.6907216 10.9140893,37.6907216 L10.8591065,37.6907216 C8.71477663,37.6632302 6.90034364,35.3264605 5.5532646,33.2646048 C2.80412371,29.0584192 1.56701031,24.0824742 2.28178694,19.9312715 C2.52920962,18.556701 2.94158076,17.4020619 3.51890034,16.4948454 C5.14089347,13.9931271 7.67010309,12.4536082 10.1443299,12.4536082 C11.4364261,12.4536082 12.4536082,12.8109966 13.5532646,13.2233677 C14.5979381,13.6082474 15.6701031,13.9931271 16.9347079,13.9931271 C18.1168385,13.9931271 19.0790378,13.6357388 20.0137457,13.2783505 C21.0584192,12.8934708 22.1305842,12.4810997 23.6975945,12.4810997 C25.5670103,12.4810997 27.4914089,13.3883162 29.0309278,14.9278351 C27.628866,15.9450172 26.6116838,17.2920962 26.0343643,18.9140893 C24.5223368,23.0927835 26.419244,27.7113402 30.2405498,29.6907216 C29.6632302,30.9003436 29.2508591,31.6426117 28.3986254,32.9621993 Z" id="Shape"></path>
                        </g>
                    </g>
                </g>
            </g>
        </g>
    </g>
</svg>